# File created by Blade
# Date/Time:  Wed Apr 08 17:35:20 2015
#---------------------------------------------------------
:version 1.10
:name HOM
:units
  mass 1.0
  length 1.000000
  angle deg
:documentation
     Acclaim Skeleton File
:root
   axis xyz
   order TX TY TZ RX RY RZ
   position 0.000000 0.000000 0.000000
   orientation 0 0 0
:bonedata
   begin
      id 1
      name Spine_dum
      direction 0.000000 1.000000 0.000000
      length 5.893853
      axis 0.0 0.0 0.0 xyz
   end
   begin
      id 2
      name LeftUpLeg_dum
      direction 1.000000 0.000000 0.000000
      length 3.697939
      axis 0.0 0.0 0.0 xyz
   end
   begin
      id 3
      name RightUpLeg_dum
      direction -1.000000 0.000000 0.000000
      length 3.697939
      axis 0.0 0.0 0.0 xyz
   end
   begin
      id 4
      name Spine
      direction 0.000000 1.000000 0.000000
      length 0.000000
      axis 0.0 0.0 0.0 xyz
      dof rx ry rz
   end
   begin
      id 5
      name Spine_dum1
      direction 0.000000 1.000000 0.000000
      length 16.447146
      axis 0.0 0.0 0.0 xyz
   end
   begin
      id 6
      name Spine_dum2
      direction 0.000000 1.000000 0.000000
      length 10.900383
      axis 0.0 0.0 0.0 xyz
   end
   begin
      id 7
      name Spine_dum3
      direction 0.000000 1.000000 0.000000
      length 10.900383
      axis 0.0 0.0 0.0 xyz
   end
   begin
      id 8
      name Head
      direction 0.000000 1.000000 0.000000
      length 4.527550
      axis 0.0 0.0 0.0 xyz
      dof rx ry rz
   end
   begin
      id 9
      name LeftShoulder
      direction 1.000000 0.000000 0.000000
      length 8.219464
      axis 0.0 0.0 -90.0 xyz
      dof rx ry rz
   end
   begin
      id 10
      name LeftArm
      direction 1.000000 0.000000 0.000000
      length 11.094937
      axis 0.0 0.0 -90.0 xyz
      dof rx ry rz
   end
   begin
      id 11
      name LeftForeArm
      direction 1.000000 0.000000 0.000000
      length 9.103875
      axis 0.0 0.0 -90.0 xyz
      dof ry rz rx
   end
   begin
      id 12
      name LeftHand
      direction 0.000000 0.000000 0.000000
      length 0.000000
      axis 0.0 0.0 -90.0 xyz
      dof rx ry rz
   end
   begin
      id 13
      name LeftHand_dum1
      direction 0.000000 0.000000 0.000000
      length 0.000000
      axis 0.0 0.0 -90.0 xyz
   end
   begin
      id 14
      name LeftHand_dum2
      direction 1.000000 0.000000 0.000000
      length 3.937000
      axis 0.0 0.0 -90.0 xyz
   end
   begin
      id 15
      name LeftHandThumb1
      direction 0.000000 0.000000 1.000000
      length 3.937000
      axis 0.0 0.0 -90.0 xyz
      dof rx rz ry
   end
   begin
      id 16
      name RightShoulder
      direction -1.000000 0.000000 0.000000
      length 8.219464
      axis 0.0 0.0 90.0 xyz
      dof rx ry rz
   end
   begin
      id 17
      name RightArm
      direction -1.000000 0.000000 0.000000
      length 11.094937
      axis 0.0 0.0 90.0 xyz
      dof rx ry rz
   end
   begin
      id 18
      name RightForeArm
      direction -1.000000 0.000000 0.000000
      length 9.103875
      axis 0.0 0.0 90.0 xyz
      dof ry rz rx
   end
   begin
      id 19
      name RightHand
      direction 0.000000 0.000000 0.000000
      length 0.000000
      axis 0.0 0.0 90.0 xyz
      dof rx ry rz
   end
   begin
      id 20
      name RightHand_dum1
      direction 0.000000 0.000000 0.000000
      length 0.000000
      axis 0.0 0.0 90.0 xyz
   end
   begin
      id 21
      name RightHand_dum2
      direction -1.000000 0.000000 0.000000
      length 3.937000
      axis 0.0 0.0 90.0 xyz
   end
   begin
      id 22
      name RightHandThumb1
      direction 0.000000 0.000000 1.000000
      length 3.937000
      axis 0.0 0.0 90.0 xyz
      dof rx rz ry
   end
   begin
      id 23
      name LeftUpLeg
      direction 0.000000 -1.000000 0.000000
      length 16.181467
      axis 0.0 0.0 0.0 xyz
      dof rx ry rz
   end
   begin
      id 24
      name LeftLeg
      direction 0.000000 -1.000000 0.000000
      length 16.501392
      axis 0.0 0.0 0.0 xyz
      dof rx ry rz
   end
   begin
      id 25
      name LeftFoot
      direction 0.000000 -0.258819 0.965926
      length 6.408245
      axis 15.0 0.0 0.0 xyz
      dof rx ry rz
   end
   begin
      id 26
      name LeftToeBase
      direction 0.000000 0.000000 1.000000
      length 2.952750
      axis 0.0 0.0 0.0 xyz
      dof rx ry rz
   end
   begin
      id 27
      name RightUpLeg
      direction 0.000000 -1.000000 0.000000
      length 16.181467
      axis 0.0 0.0 0.0 xyz
      dof rx ry rz
   end
   begin
      id 28
      name RightLeg
      direction 0.000000 -1.000000 0.000000
      length 16.501392
      axis 0.0 0.0 0.0 xyz
      dof rx ry rz
   end
   begin
      id 29
      name RightFoot
      direction 0.000000 -0.258819 0.965926
      length 6.408245
      axis 15.0 0.0 0.0 xyz
      dof rx ry rz
   end
   begin
      id 30
      name RightToeBase
      direction 0.000000 0.000000 1.000000
      length 2.952750
      axis 0.0 0.0 0.0 xyz
      dof rx ry rz
   end
:hierarchy
   begin
      root Spine_dum LeftUpLeg_dum RightUpLeg_dum
      Spine_dum Spine
      LeftUpLeg_dum LeftUpLeg
      RightUpLeg_dum RightUpLeg
      Spine Spine_dum1 Spine_dum2 Spine_dum3
      Spine_dum1 Head
      Spine_dum2 LeftShoulder
      Spine_dum3 RightShoulder
      LeftShoulder LeftArm
      LeftArm LeftForeArm
      LeftForeArm LeftHand
      LeftHand LeftHand_dum1 LeftHand_dum2
      LeftHand_dum1 LeftHandThumb1
      RightShoulder RightArm
      RightArm RightForeArm
      RightForeArm RightHand
      RightHand RightHand_dum1 RightHand_dum2
      RightHand_dum1 RightHandThumb1
      LeftUpLeg LeftLeg
      LeftLeg LeftFoot
      LeftFoot LeftToeBase
      RightUpLeg RightLeg
      RightLeg RightFoot
      RightFoot RightToeBase
   end

# File created by Blade
# Date/Time:  Wed Apr 08 17:35:25 2015
# Frame Rate: 120.000 fps
#------------------------------------------------------
:FULLY-SPECIFIED
:DEGREES
605
root 7.752830 36.871423 2.937085 51.704265 -59.668191 -22.453191
Spine -34.974867 -4.612176 12.771597
Head 36.600891 12.343019 10.112039
LeftShoulder -11.270551 25.103868 10.801816
LeftArm 20.098766 23.674812 -76.726187
LeftForeArm 18.455479 -0.000000 28.290954
LeftHand -12.865328 -0.000000 -10.796326
LeftHandThumb1 -26.253704 0.000000 33.147579
RightShoulder -41.838782 -53.474415 18.390997
RightArm 54.423849 -22.855343 46.304885
RightForeArm 3.884907 -0.000000 26.671048
RightHand -1.816621 -0.000000 27.024542
RightHandThumb1 -24.326973 -0.000000 -32.862282
LeftUpLeg -42.004098 5.240988 3.718931
LeftLeg 24.115826 -0.000000 -0.000000
LeftFoot -11.844749 -1.914217 -3.502237
LeftToeBase 6.603559 -0.000000 -0.000000
RightUpLeg -122.364550 7.746634 28.625540
RightLeg 94.927650 -0.000000 -0.000000
RightFoot -24.504604 -26.577849 8.193099
RightToeBase -27.940835 -0.000000 0.000000
606
root 7.743160 36.871450 2.946678 51.677399 -59.672467 -22.473082
Spine -34.940595 -4.586608 12.770807
Head 36.636994 12.281421 10.166845
LeftShoulder -11.285972 25.110931 10.790980
LeftArm 20.094058 23.754909 -76.709493
LeftForeArm 18.506543 0.000000 28.425389
LeftHand -12.796122 0.000000 -10.973327
LeftHandThumb1 -26.253704 0.000000 33.147579
RightShoulder -41.829237 -53.452900 18.416452
RightArm 54.453573 -22.864724 46.213722
RightForeArm 3.675033 -0.000000 26.671658
RightHand -1.932473 0.000000 27.104332
RightHandThumb1 -24.326973 -0.000000 -32.862282
LeftUpLeg -41.967734 5.372185 3.667761
LeftLeg 24.159962 -0.000000 -0.000000
LeftFoot -11.951278 -2.128339 -3.711226
LeftToeBase 7.072699 -0.000000 -0.000000
RightUpLeg -122.337486 7.402998 28.120971
RightLeg 95.023669 -0.000000 -0.000000
RightFoot -24.567913 -27.161507 7.982089
RightToeBase -28.148902 -0.000000 0.000000
607
root 7.732865 36.872342 2.955377 51.634457 -59.649147 -22.471673
Spine -34.915910 -4.582116 12.780260
Head 36.662243 12.191036 10.211468
LeftShoulder -11.299536 25.129599 10.781232
LeftArm 20.103795 23.839099 -76.692627
LeftForeArm 18.599794 -0.000000 28.542831
LeftHand -12.746128 -0.000000 -11.052004
LeftHandThumb1 -26.253704 0.000000 33.147579
RightShoulder -41.872378 -53.449665 18.486417
RightArm 54.565701 -22.883589 46.053782
RightForeArm 3.408791 -0.000000 26.626234
RightHand -2.046295 -0.000000 27.213004
RightHandThumb1 -24.326973 -0.000000 -32.862282
LeftUpLeg -41.945421 5.503376 3.621808
LeftLeg 24.212843 -0.000000 -0.000000
LeftFoot -12.045862 -2.383537 -3.940390
LeftToeBase 7.533600 -0.000000 -0.000000
RightUpLeg -122.328338 7.037615 27.647514
RightLeg 95.211678 -0.000000 -0.000000
RightFoot -24.648315 -27.631435 7.868507
RightToeBase -28.311353 -0.000000 0.000000
608
root 7.721597 36.873130 2.963707 51.578816 -59.622340 -22.446002
Spine -34.908791 -4.591485 12.785020
Head 36.685497 12.105616 10.240300
LeftShoulder -11.309766 25.130421 10.779060
LeftArm 20.082760 23.934987 -76.679066
LeftForeArm 18.658239 -0.000000 28.651422
LeftHand -12.721951 -0.000000 -11.113200
LeftHandThumb1 -26.253704 0.000000 33.147579
RightShoulder -41.888034 -53.454043 18.534272
RightArm 54.634670 -22.887788 45.946823
RightForeArm 3.130934 0.000000 26.596736
RightHand -2.060970 -0.000000 27.388426
RightHandThumb1 -24.326973 -0.000000 -32.862282
LeftUpLeg -41.930261 5.631350 3.566154
LeftLeg 24.260759 -0.000000 -0.000000
LeftFoot -12.121070 -2.625177 -4.132413
LeftToeBase 7.963732 -0.000000 -0.000000
RightUpLeg -122.331621 6.672991 27.190852
RightLeg 95.491448 -0.000000 -0.000000
RightFoot -24.715663 -28.010980 7.763618
RightToeBase -28.332613 -0.000000 0.000000
609
root 7.709651 36.873885 2.973860 51.528080 -59.606732 -22.424089
Spine -34.904104 -4.579898 12.775638
Head 36.695355 11.998794 10.254331
LeftShoulder -11.313596 25.138859 10.776198
LeftArm 20.082191 24.026649 -76.656862
LeftForeArm 18.733608 0.000000 28.730336
LeftHand -12.667183 -0.000000 -11.200026
LeftHandThumb1 -26.253704 0.000000 33.147579
RightShoulder -41.920729 -53.437789 18.590755
RightArm 54.670150 -22.901559 45.840253
RightForeArm 2.934168 -0.000000 26.606537
RightHand -2.119191 -0.000000 27.605399
RightHandThumb1 -24.326973 -0.000000 -32.862282
LeftUpLeg -41.899668 5.761695 3.499668
LeftLeg 24.284457 -0.000000 -0.000000
LeftFoot -12.187947 -2.848469 -4.313580
LeftToeBase 8.326439 -0.000000 -0.000000
RightUpLeg -122.332497 6.317900 26.776873
RightLeg 95.844745 -0.000000 -0.000000
RightFoot -24.669663 -28.395961 7.487672
RightToeBase -28.427041 -0.000000 0.000000
610
root 7.693878 36.876127 2.980210 51.502161 -59.585155 -22.420502
Spine -34.919985 -4.560797 12.758636
Head 36.713122 11.876697 10.285513
LeftShoulder -11.294565 25.166369 10.783834
LeftArm 20.081213 24.110558 -76.621166
LeftForeArm 18.749142 -0.000000 28.804481
LeftHand -12.639784 -0.000000 -11.225105
LeftHandThumb1 -26.253704 0.000000 33.147579
RightShoulder -41.946662 -53.416830 18.668099
RightArm 54.619567 -22.900206 45.780666
RightForeArm 2.777466 0.000000 26.689051
RightHand -2.180116 -0.000000 27.825595
RightHandThumb1 -24.326973 -0.000000 -32.862282
LeftUpLeg -41.871052 5.899583 3.445088
LeftLeg 24.298580 -0.000000 -0.000000
LeftFoot -12.246693 -3.056677 -4.488004
LeftToeBase 8.690402 -0.000000 -0.000000
RightUpLeg -122.329379 5.985600 26.381772
RightLeg 96.268783 -0.000000 -0.000000
RightFoot -24.646519 -28.588633 7.394189
RightToeBase -28.619221 -0.000000 0.000000
611
root 7.679897 36.879329 2.986829 51.523126 -59.593123 -22.443440
Spine -34.951599 -4.518312 12.734712
Head 36.704379 11.786076 10.313250
LeftShoulder -11.294642 25.164563 10.793347
LeftArm 20.052778 24.184593 -76.600577
LeftForeArm 18.797839 0.000000 28.865939
LeftHand -12.557809 -0.000000 -11.292380
LeftHandThumb1 -26.253704 0.000000 33.147579
RightShoulder -41.967758 -53.389175 18.709505
RightArm 54.653693 -22.945282 45.681722
RightForeArm 2.608056 -0.000000 26.681550
RightHand -2.289029 -0.000000 28.068559
RightHandThumb1 -24.326973 -0.000000 -32.862282
LeftUpLeg -41.848916 6.016361 3.403178
LeftLeg 24.290477 -0.000000 -0.000000
LeftFoot -12.310089 -3.220193 -4.696457
LeftToeBase 9.064871 -0.000000 -0.000000
RightUpLeg -122.312000 5.689110 26.142164
RightLeg 96.712870 -0.000000 -0.000000
RightFoot -24.561723 -28.829714 7.102750
RightToeBase -28.677599 -0.000000 0.000000
612
root 7.664771 36.881776 2.994116 51.495086 -59.572546 -22.421054
Spine -34.985551 -4.506393 12.713798
Head 36.694671 11.681211 10.341538
LeftShoulder -11.285872 25.169896 10.800323
LeftArm 20.042415 24.282844 -76.570934
LeftForeArm 18.779859 -0.000000 28.867221
LeftHand -12.565843 -0.000000 -11.299601
LeftHandThumb1 -26.253704 0.000000 33.147579
RightShoulder -42.017223 -53.392656 18.763361
RightArm 54.761928 -22.999122 45.564294
RightForeArm 2.420257 -0.000000 26.592205
RightHand -2.384731 -0.000000 28.290563
RightHandThumb1 -24.326973 -0.000000 -32.862282
LeftUpLeg -41.821503 6.070169 3.381174
LeftLeg 24.290133 -0.000000 -0.000000
LeftFoot -12.368168 -3.341710 -4.855249
LeftToeBase 9.394835 -0.000000 -0.000000
RightUpLeg -122.313781 5.374374 25.813843
RightLeg 97.248191 -0.000000 -0.000000
RightFoot -24.515507 -28.907126 6.981927
RightToeBase -28.773298 -0.000000 0.000000
613
root 7.649059 36.883809 3.000939 51.472577 -59.541846 -22.417585
Spine -35.001202 -4.487726 12.712615
Head 36.666649 11.593389 10.345438
LeftShoulder -11.271806 25.171082 10.800899
LeftArm 20.031455 24.335785 -76.558238
LeftForeArm 18.829985 -0.000000 28.856704
LeftHand -12.533424 -0.000000 -11.368622
LeftHandThumb1 -26.253704 0.000000 33.147579
RightShoulder -42.055465 -53.374134 18.796895
RightArm 54.841744 -23.061207 45.456418
RightForeArm 2.285237 -0.000000 26.545779
RightHand -2.515410 -0.000000 28.528022
RightHandThumb1 -24.326973 -0.000000 -32.862282
LeftUpLeg -41.781198 6.081817 3.397781
LeftLeg 24.291165 -0.000000 -0.000000
LeftFoot -12.409735 -3.411998 -4.980286
LeftToeBase 9.595187 -0.000000 -0.000000
RightUpLeg -122.303119 5.071024 25.504979
RightLeg 97.831024 -0.000000 -0.000000
RightFoot -24.462378 -29.062149 6.693363
RightToeBase -28.779862 -0.000000 0.000000
614
root 7.633255 36.886022 3.007466 51.470533 -59.515437 -22.446305
Spine -35.005509 -4.477234 12.725634
Head 36.634354 11.526747 10.360104
LeftShoulder -11.297812 25.175750 10.789698
LeftArm 20.038111 24.383845 -76.543447
LeftForeArm 18.891809 0.000000 28.828264
LeftHand -12.513863 -0.000000 -11.487417
LeftHandThumb1 -26.253704 0.000000 33.147579
RightShoulder -42.035089 -53.350678 18.796944
RightArm 54.886525 -23.119329 45.350759
RightForeArm 2.168725 -0.000000 26.536354
RightHand -2.645985 0.000000 28.754075
RightHandThumb1 -24.326973 -0.000000 -32.862282
LeftUpLeg -41.730547 6.093643 3.428936
LeftLeg 24.296406 -0.000000 -0.000000
LeftFoot -12.457966 -3.455725 -5.095996
LeftToeBase 9.778283 -0.000000 -0.000000
RightUpLeg -122.261253 4.792246 25.262327
RightLeg 98.427337 -0.000000 -0.000000
RightFoot -24.547306 -29.092664 6.716361
RightToeBase -28.821509 -0.000000 0.000000
615
root 7.617031 36.888216 3.014157 51.466523 -59.493690 -22.476864
Spine -35.001337 -4.448154 12.727421
Head 36.592466 11.464300 10.383707
LeftShoulder -11.300573 25.180462 10.784427
LeftArm 20.055617 24.407189 -76.536198
LeftForeArm 18.961350 -0.000000 28.753723
LeftHand -12.491383 -0.000000 -11.607122
LeftHandThumb1 -26.253704 0.000000 33.147579
RightShoulder -42.046148 -53.331456 18.821094
RightArm 54.937693 -23.174867 45.243763
RightForeArm 2.052896 -0.000000 26.525041
RightHand -2.742387 -0.000000 28.955188
RightHandThumb1 -24.326973 -0.000000 -32.862282
LeftUpLeg -41.682311 6.104709 3.460925
LeftLeg 24.312496 -0.000000 -0.000000
LeftFoot -12.500466 -3.494311 -5.156905
LeftToeBase 9.922260 -0.000000 -0.000000
RightUpLeg -122.209996 4.547072 25.061180
RightLeg 99.037935 -0.000000 -0.000000
RightFoot -24.483889 -29.442392 6.566068
RightToeBase -28.774239 -0.000000 0.000000
